<svg width="33" height="33" viewBox="0 0 33 33" fill="none" xmlns="http://www.w3.org/2000/svg">
<g clip-path="url(#clip0_2_773)">
<mask id="mask0_2_773" style="mask-type:luminance" maskUnits="userSpaceOnUse" x="0" y="0" width="32" height="32">
<path d="M31.6052 0.870117H0.546387V31.9289H31.6052V0.870117Z" fill="white"/>
</mask>
<g mask="url(#mask0_2_773)">
<path fill-rule="evenodd" clip-rule="evenodd" d="M16.0758 0.870117C7.4958 0.870117 0.546387 7.81953 0.546387 16.3995C0.546387 23.2713 4.99168 29.0754 11.1646 31.133C11.941 31.2689 12.2322 30.803 12.2322 30.3954C12.2322 30.0266 12.2128 28.8036 12.2128 27.503C8.31109 28.2213 7.30168 26.5519 6.99109 25.6783C6.81639 25.2319 6.05933 23.8536 5.39933 23.4848C4.8558 23.1936 4.07933 22.4754 5.37992 22.456C6.60286 22.4366 7.47639 23.5819 7.76756 24.0477C9.16521 26.3966 11.3975 25.7366 12.2905 25.3289C12.4263 24.3195 12.834 23.6401 13.2805 23.2519C9.82521 22.8636 6.21462 21.5242 6.21462 15.5842C6.21462 13.8954 6.81639 12.4977 7.80639 11.4107C7.65109 11.0225 7.10756 9.43071 7.96168 7.29541C7.96168 7.29541 9.26227 6.88777 12.2322 8.88718C13.4746 8.53777 14.7946 8.36306 16.1146 8.36306C17.4346 8.36306 18.7546 8.53777 19.9969 8.88718C22.9669 6.86835 24.2675 7.29541 24.2675 7.29541C25.1216 9.43071 24.5781 11.0225 24.4228 11.4107C25.4128 12.4977 26.0146 13.876 26.0146 15.5842C26.0146 21.5436 22.3846 22.8636 18.9293 23.2519C19.4922 23.7372 19.9775 24.6689 19.9775 26.1248C19.9775 28.2019 19.9581 29.8713 19.9581 30.3954C19.9581 30.803 20.2493 31.2883 21.0257 31.133C24.1087 30.0922 26.7874 28.1109 28.6852 25.4679C30.583 22.8249 31.6042 19.6533 31.6052 16.3995C31.6052 7.81953 24.6558 0.870117 16.0758 0.870117Z" fill="black"/>
</g>
</g>
<defs>
<clipPath id="clip0_2_773">
<rect width="32" height="32" fill="white" transform="translate(0.487305 0.0117188)"/>
</clipPath>
</defs>
</svg>
