<svg width="31" height="30" viewBox="0 0 31 30" fill="none" xmlns="http://www.w3.org/2000/svg">
<g clip-path="url(#clip0_2_763)">
<path fill-rule="evenodd" clip-rule="evenodd" d="M9.80743 0.750063C11.3244 0.680063 11.8084 0.664062 15.6754 0.664062C19.5424 0.664062 20.0264 0.681063 21.5434 0.750063C23.0604 0.818063 24.0954 1.06006 25.0014 1.41106C25.9494 1.77006 26.8104 2.33006 27.5214 3.05506C28.2461 3.7652 28.8065 4.62532 29.1634 5.57506C29.5154 6.48006 29.7554 7.51506 29.8254 9.03006C29.8954 10.5501 29.9104 11.0341 29.9104 14.9001C29.9104 18.7671 29.8944 19.2501 29.8254 20.7681C29.7564 22.2831 29.5154 23.3181 29.1624 24.2241C28.8055 25.1739 28.2458 26.0345 27.5224 26.7461C26.8113 27.4694 25.951 28.0291 25.0014 28.3861C24.0954 28.7391 23.0604 28.9801 21.5454 29.0501C20.0264 29.1201 19.5424 29.1351 15.6754 29.1351C11.8084 29.1351 11.3254 29.1181 9.80643 29.0501C8.29243 28.9801 7.25743 28.7391 6.35143 28.3871C5.40152 28.0298 4.54088 27.4698 3.82943 26.7461C3.10542 26.0354 2.54507 25.1754 2.18743 24.2261C1.83643 23.3191 1.59543 22.2841 1.52543 20.7701C1.45543 19.2501 1.44043 18.7651 1.44043 14.9001C1.44043 11.0331 1.45743 10.5491 1.52543 9.03206C1.59443 7.51506 1.83543 6.48006 2.18743 5.57406C2.54543 4.62406 3.10643 3.76406 3.83043 3.05406C4.54088 2.32933 5.40087 1.76829 6.35043 1.41006C7.25643 1.06106 8.29143 0.820063 9.80543 0.750063H9.80743ZM21.4274 3.31206C19.9274 3.24406 19.4774 3.22906 15.6754 3.22906C11.8754 3.22906 11.4254 3.24406 9.92343 3.31206C8.53443 3.37606 7.78143 3.60706 7.27943 3.80206C6.66127 4.03027 6.10196 4.39381 5.64243 4.86606C5.16971 5.32541 4.80581 5.88475 4.57743 6.50306C4.38243 7.00606 4.15043 7.75906 4.08743 9.14706C4.01843 10.6491 4.00443 11.0991 4.00443 14.9001C4.00443 18.7001 4.01843 19.1501 4.08743 20.6521C4.15043 22.0411 4.38243 22.7941 4.57743 23.2961C4.80558 23.9142 5.16912 24.4736 5.64143 24.9331C6.10143 25.4051 6.66143 25.7691 7.27843 25.9971C7.78043 26.1921 8.53343 26.4241 9.92243 26.4871C11.4234 26.5561 11.8724 26.5701 15.6744 26.5701C19.4764 26.5701 19.9254 26.5561 21.4274 26.4871C22.8154 26.4241 23.5684 26.1921 24.0704 25.9971C24.6886 25.7689 25.2479 25.4053 25.7074 24.9331C26.1804 24.4731 26.5444 23.9131 26.7714 23.2961C26.9674 22.7941 27.1984 22.0411 27.2614 20.6521C27.3314 19.1511 27.3454 18.7011 27.3454 14.9001C27.3454 11.0991 27.3304 10.6481 27.2624 9.14706C27.1984 7.75906 26.9674 7.00606 26.7724 6.50306C26.5439 5.88481 26.18 5.3255 25.7074 4.86606C25.2479 4.39409 24.6885 4.03089 24.0704 3.80306C23.5684 3.60706 22.8154 3.37606 21.4274 3.31306V3.31206ZM13.8574 19.2881C14.4392 19.5125 15.0594 19.6201 15.6828 19.6049C16.3062 19.5896 16.9204 19.4517 17.4905 19.199C18.0605 18.9463 18.5752 18.5838 19.0052 18.1323C19.4352 17.6807 19.772 17.1488 19.9964 16.5671C20.2209 15.9853 20.3285 15.365 20.3132 14.7417C20.2979 14.1183 20.16 13.5041 19.9074 12.934C19.6547 12.364 19.2922 11.8493 18.8406 11.4193C18.389 10.9893 17.8572 10.6525 17.2754 10.4281C16.1093 10.0145 14.8279 10.0723 13.7037 10.5891C12.5796 11.1059 11.7014 12.0409 11.2561 13.1952C10.8108 14.3496 10.8335 15.6321 11.3193 16.77C11.8051 17.9079 12.7157 18.8113 13.8574 19.2881ZM10.5014 9.72606C11.8734 8.35383 13.7343 7.58282 15.6747 7.58263C17.6152 7.58244 19.4762 8.3531 20.8484 9.72506C22.2207 11.097 22.9917 12.9579 22.9919 14.8984C22.9921 16.8388 22.2214 18.6998 20.8494 20.0721C19.4775 21.4443 17.6166 22.2153 15.6761 22.2155C13.7357 22.2157 11.8747 21.445 10.5024 20.0731C9.1302 18.7011 8.35918 16.8402 8.359 14.8998C8.35881 12.9593 9.12946 11.0983 10.5014 9.72606ZM24.6154 8.67206C24.7884 8.51825 24.9287 8.3313 25.0281 8.12229C25.1274 7.91327 25.1839 7.68644 25.194 7.45522C25.2042 7.224 25.1678 6.9931 25.0871 6.77619C25.0064 6.55927 24.883 6.36075 24.7242 6.19238C24.5654 6.02401 24.3745 5.88922 24.1626 5.79598C23.9508 5.70275 23.7224 5.65296 23.491 5.64957C23.2596 5.64619 23.0299 5.68927 22.8154 5.77627C22.6009 5.86327 22.4061 5.99241 22.2424 6.15606C21.9242 6.4743 21.7425 6.90405 21.7359 7.35407C21.7293 7.8041 21.8983 8.23898 22.2072 8.5664C22.516 8.89381 22.9402 9.088 23.3899 9.10773C23.8395 9.12745 24.2791 8.97118 24.6154 8.67206Z" fill="black"/>
</g>
<defs>
<clipPath id="clip0_2_763">
<rect width="30" height="29" fill="white" transform="translate(0.487305 0.511719)"/>
</clipPath>
</defs>
</svg>
